<?xml version="1.0" encoding="UTF-8" standalone="no"?>
<!DOCTYPE svg PUBLIC "-//W3C//DTD SVG 1.1//EN"
 "http://www.w3.org/Graphics/SVG/1.1/DTD/svg11.dtd">
<!-- Generated by graphviz version 2.40.1 (20161225.0304)
 -->
<!-- Title: G Pages: 1 -->
<svg width="2180pt" height="1049pt"
 viewBox="0.00 0.00 2180.11 1048.88" xmlns="http://www.w3.org/2000/svg" xmlns:xlink="http://www.w3.org/1999/xlink">
<g id="graph0" class="graph" transform="scale(1 1) rotate(0) translate(4 1044.8814)">
<title>G</title>
<polygon fill="#ffffff" stroke="transparent" points="-4,4 -4,-1044.8814 2176.1082,-1044.8814 2176.1082,4 -4,4"/>
<!-- 1 -->
<g id="node1" class="node">
<title>1</title>
<ellipse fill="#000000" stroke="#000000" stroke-width="2" cx="1166.1082" cy="-1014.0113" rx="141.3428" ry="26.7407"/>
<text text-anchor="middle" x="1166.1082" y="-1017.8113" font-family="Times,serif" font-size="14.00" fill="#ffffff">Aeotec ZW090 Z&#45;Stick Gen5 EU</text>
<text text-anchor="middle" x="1166.1082" y="-1002.8113" font-family="Times,serif" font-size="14.00" fill="#ffffff">(1)</text>
</g>
<!-- 3 -->
<g id="node2" class="node">
<title>3</title>
<ellipse fill="none" stroke="#228b22" cx="1006.1082" cy="-924.2712" rx="128.8872" ry="26.7407"/>
<text text-anchor="middle" x="1006.1082" y="-928.0712" font-family="Times,serif" font-size="14.00" fill="#000000">Aeotec ZW100 MultiSensor 6</text>
<text text-anchor="middle" x="1006.1082" y="-913.0712" font-family="Times,serif" font-size="14.00" fill="#000000">(3)</text>
</g>
<!-- 1&#45;&gt;3 -->
<g id="edge1" class="edge">
<title>1&#45;&gt;3</title>
<path fill="none" stroke="#228b22" d="M1111.7947,-983.5482C1095.1267,-974.1995 1076.7944,-963.9174 1060.1449,-954.5791"/>
<polygon fill="#228b22" stroke="#228b22" points="1110.2526,-986.6962 1120.6866,-988.5355 1113.677,-980.5909 1110.2526,-986.6962"/>
<polygon fill="#228b22" stroke="#228b22" points="1061.5236,-951.3394 1051.0896,-949.5002 1058.0993,-957.4447 1061.5236,-951.3394"/>
</g>
<!-- 4 -->
<g id="node3" class="node">
<title>4</title>
<ellipse fill="none" stroke="#228b22" cx="491.1082" cy="-924.2712" rx="163.1835" ry="26.7407"/>
<text text-anchor="middle" x="491.1082" y="-928.0712" font-family="Times,serif" font-size="14.00" fill="#000000">FIBARO System FGWPE/F Wall Plug</text>
<text text-anchor="middle" x="491.1082" y="-913.0712" font-family="Times,serif" font-size="14.00" fill="#000000">(4)</text>
</g>
<!-- 1&#45;&gt;4 -->
<g id="edge2" class="edge">
<title>1&#45;&gt;4</title>
<path fill="none" stroke="#228b22" d="M1040.0599,-997.2534C922.9206,-981.6799 748.8719,-958.5405 628.2876,-942.509"/>
<polygon fill="#228b22" stroke="#228b22" points="1039.6975,-1000.736 1050.0716,-998.5845 1040.6201,-993.797 1039.6975,-1000.736"/>
<polygon fill="#228b22" stroke="#228b22" points="628.6212,-939.0226 618.2471,-941.1741 627.6986,-945.9616 628.6212,-939.0226"/>
</g>
<!-- 7 -->
<g id="node4" class="node">
<title>7</title>
<ellipse fill="none" stroke="#228b22" cx="1166.1082" cy="-834.5311" rx="134.2007" ry="26.7407"/>
<text text-anchor="middle" x="1166.1082" y="-838.3311" font-family="Times,serif" font-size="14.00" fill="#000000">Aeotec DSD37 Range Extender</text>
<text text-anchor="middle" x="1166.1082" y="-823.3311" font-family="Times,serif" font-size="14.00" fill="#000000">(7)</text>
</g>
<!-- 1&#45;&gt;7 -->
<g id="edge3" class="edge">
<title>1&#45;&gt;7</title>
<path fill="none" stroke="#228b22" d="M1166.1082,-976.6246C1166.1082,-945.8606 1166.1082,-902.474 1166.1082,-871.7548"/>
<polygon fill="#228b22" stroke="#228b22" points="1162.6083,-976.7521 1166.1082,-986.7521 1169.6083,-976.7522 1162.6083,-976.7521"/>
<polygon fill="#228b22" stroke="#228b22" points="1169.6083,-871.4587 1166.1082,-861.4587 1162.6083,-871.4588 1169.6083,-871.4587"/>
</g>
<!-- 9 -->
<g id="node6" class="node">
<title>9</title>
<ellipse fill="none" stroke="#228b22" cx="713.1082" cy="-655.0509" rx="156.9554" ry="26.7407"/>
<text text-anchor="middle" x="713.1082" y="-658.8509" font-family="Times,serif" font-size="14.00" fill="#000000">FIBARO System FGD212 Dimmer 2</text>
<text text-anchor="middle" x="713.1082" y="-643.8509" font-family="Times,serif" font-size="14.00" fill="#000000">(9)</text>
</g>
<!-- 1&#45;&gt;9 -->
<g id="edge4" class="edge">
<title>1&#45;&gt;9</title>
<path fill="none" stroke="#228b22" d="M1017.2786,-1007.8454C920.1469,-1000.6371 805.104,-985.0099 770.1082,-951.1413 699.5224,-882.829 701.7891,-755.5804 708.0321,-692.4966"/>
<polygon fill="#228b22" stroke="#228b22" points="1017.2945,-1011.3555 1027.5192,-1008.5795 1017.7951,-1004.3734 1017.2945,-1011.3555"/>
<polygon fill="#228b22" stroke="#228b22" points="711.5483,-692.5343 709.1422,-682.2163 704.5888,-691.7827 711.5483,-692.5343"/>
</g>
<!-- 12 -->
<g id="node7" class="node">
<title>12</title>
<ellipse fill="none" stroke="#228b22" cx="1164.1082" cy="-565.3107" rx="156.9554" ry="26.7407"/>
<text text-anchor="middle" x="1164.1082" y="-569.1107" font-family="Times,serif" font-size="14.00" fill="#000000">FIBARO System FGD212 Dimmer 2</text>
<text text-anchor="middle" x="1164.1082" y="-554.1107" font-family="Times,serif" font-size="14.00" fill="#000000">(12)</text>
</g>
<!-- 1&#45;&gt;12 -->
<g id="edge5" class="edge">
<title>1&#45;&gt;12</title>
<path fill="none" stroke="#228b22" d="M1210.9951,-981.679C1245.1285,-954.1058 1289.4603,-911.1048 1309.1082,-861.4012 1317.8887,-839.1892 1315.4695,-830.6828 1309.1082,-807.661 1286.6114,-726.2435 1228.7269,-644.6533 1193.2717,-599.9946"/>
<polygon fill="#228b22" stroke="#228b22" points="1208.6681,-979.0571 1203.0005,-988.0086 1213.0133,-984.5453 1208.6681,-979.0571"/>
<polygon fill="#228b22" stroke="#228b22" points="1195.917,-597.6989 1186.9261,-592.094 1190.4594,-602.0823 1195.917,-597.6989"/>
</g>
<!-- 13 -->
<g id="node8" class="node">
<title>13</title>
<ellipse fill="none" stroke="#228b22" cx="528.1082" cy="-475.5706" rx="156.9554" ry="26.7407"/>
<text text-anchor="middle" x="528.1082" y="-479.3706" font-family="Times,serif" font-size="14.00" fill="#000000">FIBARO System FGD212 Dimmer 2</text>
<text text-anchor="middle" x="528.1082" y="-464.3706" font-family="Times,serif" font-size="14.00" fill="#000000">(13)</text>
</g>
<!-- 1&#45;&gt;13 -->
<g id="edge6" class="edge">
<title>1&#45;&gt;13</title>
<path fill="none" stroke="#228b22" d="M1017.2234,-1008.1675C780.5116,-998.1449 342.476,-976.3078 319.1082,-951.1413 192.519,-814.8075 266.555,-678.4136 389.1082,-538.4407 402.1826,-523.5079 419.5132,-511.9303 437.4879,-503.0232"/>
<polygon fill="#228b22" stroke="#228b22" points="1017.1585,-1011.6678 1027.297,-1008.592 1017.4533,-1004.674 1017.1585,-1011.6678"/>
<polygon fill="#228b22" stroke="#228b22" points="439.3538,-506.0143 446.9271,-498.6051 436.3864,-499.6744 439.3538,-506.0143"/>
</g>
<!-- 14 -->
<g id="node9" class="node">
<title>14</title>
<ellipse fill="none" stroke="#228b22" cx="1012.1082" cy="-385.8305" rx="156.9554" ry="26.7407"/>
<text text-anchor="middle" x="1012.1082" y="-389.6305" font-family="Times,serif" font-size="14.00" fill="#000000">FIBARO System FGD212 Dimmer 2</text>
<text text-anchor="middle" x="1012.1082" y="-374.6305" font-family="Times,serif" font-size="14.00" fill="#000000">(14)</text>
</g>
<!-- 1&#45;&gt;14 -->
<g id="edge7" class="edge">
<title>1&#45;&gt;14</title>
<path fill="none" stroke="#228b22" d="M1027.2197,-1001.4969C959.7562,-992.2445 888.8219,-976.681 868.1082,-951.1413 834.8483,-910.1323 763.723,-973.3456 975.1082,-448.7006 978.7967,-439.546 983.6682,-430.139 988.6607,-421.4816"/>
<polygon fill="#228b22" stroke="#228b22" points="1026.7675,-1004.9675 1037.1418,-1002.8166 1027.6906,-998.0286 1026.7675,-1004.9675"/>
<polygon fill="#228b22" stroke="#228b22" points="991.7393,-423.1528 993.8627,-412.7729 985.7298,-419.5631 991.7393,-423.1528"/>
</g>
<!-- 15 -->
<g id="node10" class="node">
<title>15</title>
<ellipse fill="none" stroke="#228b22" cx="424.1082" cy="-296.0904" rx="128.8872" ry="26.7407"/>
<text text-anchor="middle" x="424.1082" y="-299.8904" font-family="Times,serif" font-size="14.00" fill="#000000">Aeotec ZW100 MultiSensor 6</text>
<text text-anchor="middle" x="424.1082" y="-284.8904" font-family="Times,serif" font-size="14.00" fill="#000000">(15)</text>
</g>
<!-- 1&#45;&gt;15 -->
<g id="edge8" class="edge">
<title>1&#45;&gt;15</title>
<path fill="none" stroke="#228b22" d="M1017.4104,-1007.972C782.1544,-997.7479 343.7403,-975.7279 276.1082,-951.1413 193.0722,-920.9547 115.1082,-922.8838 115.1082,-834.5311 115.1082,-834.5311 115.1082,-834.5311 115.1082,-565.3107 115.1082,-441.6163 257.6087,-361.7664 349.0676,-323.2557"/>
<polygon fill="#228b22" stroke="#228b22" points="1017.2783,-1011.4695 1027.4203,-1008.4052 1017.581,-1004.476 1017.2783,-1011.4695"/>
<polygon fill="#228b22" stroke="#228b22" points="350.6743,-326.3788 358.5773,-319.3224 347.9988,-319.9103 350.6743,-326.3788"/>
</g>
<!-- 17 -->
<g id="node11" class="node">
<title>17</title>
<ellipse fill="none" stroke="#228b22" cx="1911.1082" cy="-834.5311" rx="156.9554" ry="26.7407"/>
<text text-anchor="middle" x="1911.1082" y="-838.3311" font-family="Times,serif" font-size="14.00" fill="#000000">FIBARO System FGD212 Dimmer 2</text>
<text text-anchor="middle" x="1911.1082" y="-823.3311" font-family="Times,serif" font-size="14.00" fill="#000000">(17)</text>
</g>
<!-- 1&#45;&gt;17 -->
<g id="edge9" class="edge">
<title>1&#45;&gt;17</title>
<path fill="none" stroke="#228b22" d="M1312.6226,-1006.0583C1456.2355,-996.8149 1664.2863,-979.145 1740.1082,-951.1413 1791.0701,-932.3192 1841.4797,-895.0576 1874.2148,-867.701"/>
<polygon fill="#228b22" stroke="#228b22" points="1312.1539,-1002.581 1302.3965,-1006.7093 1312.5987,-1009.5668 1312.1539,-1002.581"/>
<polygon fill="#228b22" stroke="#228b22" points="1876.7819,-870.1132 1882.146,-860.9767 1872.255,-864.7739 1876.7819,-870.1132"/>
</g>
<!-- 19 -->
<g id="node12" class="node">
<title>19</title>
<ellipse fill="none" stroke="#000000" cx="1022.1082" cy="-26.8701" rx="27.6545" ry="26.7407"/>
<text text-anchor="middle" x="1022.1082" y="-30.6701" font-family="Times,serif" font-size="14.00" fill="#000000"> </text>
<text text-anchor="middle" x="1022.1082" y="-15.6701" font-family="Times,serif" font-size="14.00" fill="#000000">(19)</text>
</g>
<!-- 1&#45;&gt;19 -->
<g id="edge10" class="edge">
<title>1&#45;&gt;19</title>
<path fill="none" stroke="#000000" stroke-dasharray="1,5" d="M1304.3986,-1008.0317C1528.1993,-997.7199 1951.357,-975.3561 2016.1082,-951.1413 2097.187,-920.8204 2172.1082,-921.0939 2172.1082,-834.5311 2172.1082,-834.5311 2172.1082,-834.5311 2172.1082,-206.3503 2172.1082,-103.4559 2070.4985,-119.8498 1972.1082,-89.7401 1797.3051,-36.2464 1215.3532,-28.2575 1060.3277,-27.074"/>
<polygon fill="#000000" stroke="#000000" points="1059.9398,-23.5713 1049.9152,-27 1059.89,-30.5711 1059.9398,-23.5713"/>
</g>
<!-- 20 -->
<g id="node13" class="node">
<title>20</title>
<ellipse fill="none" stroke="#228b22" cx="1446.1082" cy="-296.0904" rx="156.9554" ry="26.7407"/>
<text text-anchor="middle" x="1446.1082" y="-299.8904" font-family="Times,serif" font-size="14.00" fill="#000000">FIBARO System FGD212 Dimmer 2</text>
<text text-anchor="middle" x="1446.1082" y="-284.8904" font-family="Times,serif" font-size="14.00" fill="#000000">(20)</text>
</g>
<!-- 1&#45;&gt;20 -->
<g id="edge11" class="edge">
<title>1&#45;&gt;20</title>
<path fill="none" stroke="#228b22" d="M1276.4171,-993.0395C1404.6739,-966.4549 1605.4348,-917.3007 1657.1082,-861.4012 1756.2651,-754.1348 1751.4346,-680.6642 1718.1082,-538.4407 1697.7947,-451.751 1696.0071,-417.7166 1629.1082,-358.9605 1609.3008,-341.5639 1584.4409,-328.9252 1559.4873,-319.762"/>
<polygon fill="#228b22" stroke="#228b22" points="1275.6338,-989.6272 1266.5445,-995.071 1277.0448,-996.4836 1275.6338,-989.6272"/>
<polygon fill="#228b22" stroke="#228b22" points="1560.5242,-316.4168 1549.9294,-316.4176 1558.2123,-323.024 1560.5242,-316.4168"/>
</g>
<!-- 21 -->
<g id="node14" class="node">
<title>21</title>
<ellipse fill="none" stroke="#228b22" cx="1022.1082" cy="-206.3503" rx="156.9554" ry="26.7407"/>
<text text-anchor="middle" x="1022.1082" y="-210.1503" font-family="Times,serif" font-size="14.00" fill="#000000">FIBARO System FGD212 Dimmer 2</text>
<text text-anchor="middle" x="1022.1082" y="-195.1503" font-family="Times,serif" font-size="14.00" fill="#000000">(21)</text>
</g>
<!-- 1&#45;&gt;21 -->
<g id="edge12" class="edge">
<title>1&#45;&gt;21</title>
<path fill="none" stroke="#228b22" d="M1315.3631,-1008.2449C1444.7152,-1001.1068 1636.3207,-985.3792 1800.1082,-951.1413 1935.8212,-922.772 2112.3951,-941.7419 2077.1082,-807.661 2041.8267,-673.6007 1880.3745,-341.5394 1762.1082,-269.2203 1714.2078,-239.9296 1388.9043,-221.3921 1185.868,-212.535"/>
<polygon fill="#228b22" stroke="#228b22" points="1314.7891,-1004.7707 1304.9928,-1008.8061 1315.1674,-1011.7605 1314.7891,-1004.7707"/>
<polygon fill="#228b22" stroke="#228b22" points="1185.8336,-209.0304 1175.6916,-212.0947 1185.5309,-216.0238 1185.8336,-209.0304"/>
</g>
<!-- 22 -->
<g id="node15" class="node">
<title>22</title>
<ellipse fill="none" stroke="#000000" cx="1725.1082" cy="-296.0904" rx="27.6545" ry="26.7407"/>
<text text-anchor="middle" x="1725.1082" y="-299.8904" font-family="Times,serif" font-size="14.00" fill="#000000"> </text>
<text text-anchor="middle" x="1725.1082" y="-284.8904" font-family="Times,serif" font-size="14.00" fill="#000000">(22)</text>
</g>
<!-- 1&#45;&gt;22 -->
<g id="edge13" class="edge">
<title>1&#45;&gt;22</title>
<path fill="none" stroke="#000000" stroke-dasharray="1,5" d="M1297.5826,-1003.9744C1370.9446,-995.4304 1463.0081,-979.7532 1541.1082,-951.1413 1614.4123,-924.2864 1637.6808,-917.3684 1692.1082,-861.4012 1705.5182,-847.6117 1805.1082,-662.3772 1805.1082,-655.0509 1805.1082,-655.0509 1805.1082,-655.0509 1805.1082,-565.3107 1805.1082,-477.1316 1765.1854,-379.1857 1741.7446,-329.2766"/>
<polygon fill="#000000" stroke="#000000" points="1744.8984,-327.7586 1737.4329,-320.2408 1738.5808,-330.7733 1744.8984,-327.7586"/>
</g>
<!-- 24 -->
<g id="node16" class="node">
<title>24</title>
<ellipse fill="none" stroke="#228b22" cx="581.1082" cy="-116.6102" rx="228.291" ry="26.7407"/>
<text text-anchor="middle" x="581.1082" y="-120.4102" font-family="Times,serif" font-size="14.00" fill="#000000">FIBARO System FGRM222 Roller Shutter Controller 2</text>
<text text-anchor="middle" x="581.1082" y="-105.4102" font-family="Times,serif" font-size="14.00" fill="#000000">(24)</text>
</g>
<!-- 1&#45;&gt;24 -->
<g id="edge14" class="edge">
<title>1&#45;&gt;24</title>
<path fill="none" stroke="#228b22" d="M1015.6096,-1010.1402C749.2496,-1002.5054 215.3034,-983.3899 136.1082,-951.1413 62.6784,-921.2403 1.1082,-913.8155 1.1082,-834.5311 1.1082,-834.5311 1.1082,-834.5311 1.1082,-655.0509 1.1082,-534.2113 39.1082,-506.67 39.1082,-385.8305 39.1082,-385.8305 39.1082,-385.8305 39.1082,-296.0904 39.1082,-215.1421 259.7323,-164.4268 419.4602,-138.3172"/>
<polygon fill="#228b22" stroke="#228b22" points="1015.6547,-1013.6428 1025.7503,-1010.4291 1015.8541,-1006.6457 1015.6547,-1013.6428"/>
<polygon fill="#228b22" stroke="#228b22" points="420.0966,-141.7599 429.4103,-136.7095 418.98,-134.8495 420.0966,-141.7599"/>
</g>
<!-- 25 -->
<g id="node17" class="node">
<title>25</title>
<ellipse fill="none" stroke="#000000" cx="1631.1082" cy="-116.6102" rx="27.6545" ry="26.7407"/>
<text text-anchor="middle" x="1631.1082" y="-120.4102" font-family="Times,serif" font-size="14.00" fill="#000000"> </text>
<text text-anchor="middle" x="1631.1082" y="-105.4102" font-family="Times,serif" font-size="14.00" fill="#000000">(25)</text>
</g>
<!-- 1&#45;&gt;25 -->
<g id="edge15" class="edge">
<title>1&#45;&gt;25</title>
<path fill="none" stroke="#000000" stroke-dasharray="1,5" d="M1306.2224,-1010.047C1496.1893,-1003.3993 1824.8636,-987.0313 1939.1082,-951.1413 2014.6841,-927.399 2053.6376,-930.0851 2093.1082,-861.4012 2171.7624,-724.533 2025.8726,-266.4143 1894.1082,-179.4802 1818.3553,-129.5008 1779.9929,-169.7004 1693.1082,-143.4802 1683.8707,-140.6925 1674.169,-136.9224 1665.2549,-133.089"/>
<polygon fill="#000000" stroke="#000000" points="1666.5097,-129.8165 1655.9505,-128.9479 1663.6633,-136.2117 1666.5097,-129.8165"/>
</g>
<!-- 3&#45;&gt;7 -->
<g id="edge16" class="edge">
<title>3&#45;&gt;7</title>
<path fill="none" stroke="#00ced1" stroke-dasharray="5,2" d="M1060.0029,-894.043C1076.6929,-884.682 1095.0854,-874.3661 1111.803,-864.9896"/>
<polygon fill="#00ced1" stroke="#00ced1" points="1058.1126,-891.0902 1051.1029,-899.0348 1061.5369,-897.1955 1058.1126,-891.0902"/>
<polygon fill="#00ced1" stroke="#00ced1" points="1113.8872,-867.8336 1120.8969,-859.889 1110.4629,-861.7283 1113.8872,-867.8336"/>
</g>
<!-- 8 -->
<g id="node5" class="node">
<title>8</title>
<ellipse fill="none" stroke="#00ced1" cx="1471.1082" cy="-744.791" rx="77.1494" ry="26.7407"/>
<text text-anchor="middle" x="1471.1082" y="-748.591" font-family="Times,serif" font-size="14.00" fill="#000000">Swiid SwiidInter</text>
<text text-anchor="middle" x="1471.1082" y="-733.591" font-family="Times,serif" font-size="14.00" fill="#000000">(8)</text>
</g>
<!-- 3&#45;&gt;8 -->
<g id="edge17" class="edge">
<title>3&#45;&gt;8</title>
<path fill="none" stroke="#00ced1" d="M1130.746,-910.4319C1186.928,-901.1925 1253.0863,-886.0333 1309.1082,-861.4012 1357.0112,-840.3388 1404.7681,-803.5508 1435.8838,-776.9176"/>
<polygon fill="#00ced1" stroke="#00ced1" points="1130.06,-906.997 1120.7385,-912.0329 1131.1659,-913.9091 1130.06,-906.997"/>
<polygon fill="#00ced1" stroke="#00ced1" points="1438.5534,-779.2354 1443.8151,-770.0394 1433.9671,-773.947 1438.5534,-779.2354"/>
</g>
<!-- 3&#45;&gt;9 -->
<g id="edge18" class="edge">
<title>3&#45;&gt;9</title>
<path fill="none" stroke="#00ced1" stroke-dasharray="5,2" d="M961.0157,-892.2852C948.164,-882.7007 934.3386,-871.9297 922.1082,-861.4012 855.898,-804.4035 784.6954,-731.2688 744.8411,-689.1288"/>
<polygon fill="#00ced1" stroke="#00ced1" points="959.1703,-895.2734 969.294,-898.3979 963.3284,-889.6421 959.1703,-895.2734"/>
<polygon fill="#00ced1" stroke="#00ced1" points="747.1792,-686.5068 737.7725,-681.632 742.0861,-691.3089 747.1792,-686.5068"/>
</g>
<!-- 3&#45;&gt;12 -->
<g id="edge19" class="edge">
<title>3&#45;&gt;12</title>
<path fill="none" stroke="#00ced1" stroke-dasharray="5,2" d="M1007.9144,-887.0035C1009.9228,-863.6754 1014.1621,-833.2892 1023.1082,-807.661 1050.8395,-728.2182 1105.408,-645.5633 1137.9272,-600.2551"/>
<polygon fill="#00ced1" stroke="#00ced1" points="1004.4087,-886.946 1007.1397,-897.1827 1011.3885,-887.4772 1004.4087,-886.946"/>
<polygon fill="#00ced1" stroke="#00ced1" points="1140.8958,-602.1232 1143.9269,-591.9712 1135.2265,-598.0172 1140.8958,-602.1232"/>
</g>
<!-- 3&#45;&gt;13 -->
<g id="edge20" class="edge">
<title>3&#45;&gt;13</title>
<path fill="none" stroke="#00ced1" stroke-dasharray="5,2" d="M899.7724,-904.0487C784.2948,-875.9315 604.7677,-812.9104 518.1082,-681.9209 484.4183,-630.9972 499.958,-556.5493 514.1506,-512.3837"/>
<polygon fill="#00ced1" stroke="#00ced1" points="899.1629,-907.5015 909.7023,-906.4191 900.7883,-900.6928 899.1629,-907.5015"/>
<polygon fill="#00ced1" stroke="#00ced1" points="517.5571,-513.2335 517.4188,-502.6396 510.9205,-511.0076 517.5571,-513.2335"/>
</g>
<!-- 3&#45;&gt;14 -->
<g id="edge21" class="edge">
<title>3&#45;&gt;14</title>
<path fill="none" stroke="#00ced1" stroke-dasharray="5,2" d="M998.663,-887.2338C983.7312,-806.5954 954.177,-609.467 986.1082,-448.7006 987.8804,-439.7782 990.9394,-430.5341 994.3506,-421.9695"/>
<polygon fill="#00ced1" stroke="#00ced1" points="995.2836,-888.2004 1000.5789,-897.377 1002.1619,-886.9011 995.2836,-888.2004"/>
<polygon fill="#00ced1" stroke="#00ced1" points="997.6241,-423.2149 998.3019,-412.6418 991.1785,-420.4845 997.6241,-423.2149"/>
</g>
<!-- 3&#45;&gt;20 -->
<g id="edge22" class="edge">
<title>3&#45;&gt;20</title>
<path fill="none" stroke="#00ced1" stroke-dasharray="5,2" d="M1143.1636,-919.2629C1315.2414,-911.6291 1592.1769,-894.3608 1626.1082,-861.4012 1692.4536,-796.9555 1653.1082,-747.5438 1653.1082,-655.0509 1653.1082,-655.0509 1653.1082,-655.0509 1653.1082,-475.5706 1653.1082,-416.8738 1634.2308,-398.7821 1591.1082,-358.9605 1575.0261,-344.1094 1554.885,-332.4087 1534.7767,-323.3372"/>
<polygon fill="#00ced1" stroke="#00ced1" points="1142.8449,-915.7734 1133.0077,-919.7076 1143.1513,-922.7667 1142.8449,-915.7734"/>
<polygon fill="#00ced1" stroke="#00ced1" points="1536.1228,-320.1061 1525.5548,-319.3524 1533.3462,-326.5319 1536.1228,-320.1061"/>
</g>
<!-- 4&#45;&gt;7 -->
<g id="edge23" class="edge">
<title>4&#45;&gt;7</title>
<path fill="none" stroke="#00ced1" stroke-dasharray="5,2" d="M628.5343,-906.0006C750.4878,-889.7871 926.984,-866.3223 1044.0529,-850.7581"/>
<polygon fill="#00ced1" stroke="#00ced1" points="627.9186,-902.5516 618.4671,-907.3391 628.8412,-909.4906 627.9186,-902.5516"/>
<polygon fill="#00ced1" stroke="#00ced1" points="1044.6833,-854.2052 1054.1348,-849.4178 1043.7607,-847.2663 1044.6833,-854.2052"/>
</g>
<!-- 4&#45;&gt;9 -->
<g id="edge24" class="edge">
<title>4&#45;&gt;9</title>
<path fill="none" stroke="#00ced1" stroke-dasharray="5,2" d="M519.7875,-889.4918C562.426,-837.7839 642.0648,-741.2055 684.6026,-689.6197"/>
<polygon fill="#00ced1" stroke="#00ced1" points="516.8678,-887.5311 513.206,-897.4731 522.2684,-891.9845 516.8678,-887.5311"/>
<polygon fill="#00ced1" stroke="#00ced1" points="687.4381,-691.6826 691.0998,-681.7406 682.0374,-687.2292 687.4381,-691.6826"/>
</g>
<!-- 4&#45;&gt;12 -->
<g id="edge25" class="edge">
<title>4&#45;&gt;12</title>
<path fill="none" stroke="#00ced1" stroke-dasharray="5,2" d="M548.5602,-893.6279C675.7479,-825.7893 979.8658,-663.5808 1106.8623,-595.8442"/>
<polygon fill="#00ced1" stroke="#00ced1" points="546.6849,-890.6613 539.5087,-898.4557 549.9793,-896.8376 546.6849,-890.6613"/>
<polygon fill="#00ced1" stroke="#00ced1" points="1108.5188,-598.9275 1115.695,-591.1331 1105.2245,-592.7511 1108.5188,-598.9275"/>
</g>
<!-- 4&#45;&gt;13 -->
<g id="edge26" class="edge">
<title>4&#45;&gt;13</title>
<path fill="none" stroke="#00ced1" stroke-dasharray="5,2" d="M452.8898,-890.649C419.4259,-857.315 376.1082,-802.9359 376.1082,-744.791 376.1082,-744.791 376.1082,-744.791 376.1082,-655.0509 376.1082,-596.354 399.1905,-582.3808 438.1082,-538.4407 448.371,-526.8535 461.1796,-516.2909 473.886,-507.2691"/>
<polygon fill="#00ced1" stroke="#00ced1" points="450.6804,-893.3825 460.2903,-897.8436 455.5599,-888.3634 450.6804,-893.3825"/>
<polygon fill="#00ced1" stroke="#00ced1" points="475.9289,-510.112 482.1934,-501.5676 471.9679,-504.3405 475.9289,-510.112"/>
</g>
<!-- 4&#45;&gt;14 -->
<g id="edge27" class="edge">
<title>4&#45;&gt;14</title>
<path fill="none" stroke="#00ced1" stroke-dasharray="5,2" d="M489.5121,-887.2349C488.7168,-827.7586 494.5799,-709.4071 547.1082,-628.1808 584.9357,-569.6869 741.4314,-479.0991 804.1082,-448.7006 836.7781,-432.8556 874.284,-420.0381 908.3713,-410.2114"/>
<polygon fill="#00ced1" stroke="#00ced1" points="486.0139,-887.3645 489.7186,-897.2905 493.0124,-887.2207 486.0139,-887.3645"/>
<polygon fill="#00ced1" stroke="#00ced1" points="909.687,-413.4768 918.358,-407.3888 907.783,-406.7406 909.687,-413.4768"/>
</g>
<!-- 4&#45;&gt;15 -->
<g id="edge28" class="edge">
<title>4&#45;&gt;15</title>
<path fill="none" stroke="#00ced1" stroke-dasharray="5,2" d="M423.539,-893.7215C410.3905,-884.987 397.9607,-874.2627 389.1082,-861.4012 365.3175,-826.836 351.0404,-708.0549 338.1082,-502.4407 334.1038,-438.7727 312.6148,-415.5271 342.1082,-358.9605 348.515,-346.6726 358.5219,-336.0759 369.3729,-327.2685"/>
<polygon fill="#00ced1" stroke="#00ced1" points="421.9195,-896.8369 432.2528,-899.1765 425.6338,-890.9036 421.9195,-896.8369"/>
<polygon fill="#00ced1" stroke="#00ced1" points="371.545,-330.0138 377.3838,-321.1731 367.3062,-324.4431 371.545,-330.0138"/>
</g>
<!-- 4&#45;&gt;19 -->
<g id="edge29" class="edge">
<title>4&#45;&gt;19</title>
<path fill="none" stroke="#000000" stroke-dasharray="1,5" d="M352.7202,-909.9409C268.7406,-899.3318 170.8797,-882.983 134.1082,-861.4012 76.456,-827.5641 39.1082,-811.6395 39.1082,-744.791 39.1082,-744.791 39.1082,-744.791 39.1082,-655.0509 39.1082,-534.2113 1.1082,-506.67 1.1082,-385.8305 1.1082,-385.8305 1.1082,-385.8305 1.1082,-206.3503 1.1082,-151.933 -16.6233,-150.4268 174.1082,-89.7401 328.3345,-40.6686 840.4527,-29.5356 984.2588,-27.3509"/>
<polygon fill="#000000" stroke="#000000" points="984.404,-30.8493 994.3517,-27.2033 984.3015,-23.85 984.404,-30.8493"/>
</g>
<!-- 4&#45;&gt;20 -->
<g id="edge30" class="edge">
<title>4&#45;&gt;20</title>
<path fill="none" stroke="#00ced1" stroke-dasharray="5,2" d="M651.3043,-912.9479C880.3436,-896.6151 1277.4504,-867.7068 1309.1082,-861.4012 1434.7824,-836.3693 1494.7297,-864.4503 1583.1082,-771.661 1620.1739,-732.7455 1615.1082,-708.7936 1615.1082,-655.0509 1615.1082,-655.0509 1615.1082,-655.0509 1615.1082,-565.3107 1615.1082,-465.4329 1589.6225,-436.0418 1526.1082,-358.9605 1516.9786,-347.8807 1505.5826,-337.4993 1494.2795,-328.4896"/>
<polygon fill="#00ced1" stroke="#00ced1" points="650.9285,-909.4657 641.2026,-913.6678 651.4262,-916.448 650.9285,-909.4657"/>
<polygon fill="#00ced1" stroke="#00ced1" points="1496.1554,-325.5164 1486.0992,-322.1812 1491.8806,-331.0596 1496.1554,-325.5164"/>
</g>
<!-- 4&#45;&gt;21 -->
<g id="edge31" class="edge">
<title>4&#45;&gt;21</title>
<path fill="none" stroke="#00ced1" stroke-dasharray="5,2" d="M384.2186,-900.134C261.5524,-869.2647 77.1082,-811.7206 77.1082,-744.791 77.1082,-744.791 77.1082,-744.791 77.1082,-565.3107 77.1082,-404.2338 139.5431,-336.0368 286.1082,-269.2203 336.9936,-246.0226 660.2331,-225.249 861.0555,-214.366"/>
<polygon fill="#00ced1" stroke="#00ced1" points="383.494,-903.5604 394.0436,-902.5829 385.187,-896.7682 383.494,-903.5604"/>
<polygon fill="#00ced1" stroke="#00ced1" points="861.3227,-217.8568 871.1197,-213.8233 860.9457,-210.8669 861.3227,-217.8568"/>
</g>
<!-- 7&#45;&gt;8 -->
<g id="edge32" class="edge">
<title>7&#45;&gt;8</title>
<path fill="none" stroke="#00ced1" d="M1251.6158,-809.3722C1299.1557,-795.3846 1357.5362,-778.2073 1402.1342,-765.0852"/>
<polygon fill="#00ced1" stroke="#00ced1" points="1250.4988,-806.0524 1241.8934,-812.2328 1252.4747,-812.7678 1250.4988,-806.0524"/>
<polygon fill="#00ced1" stroke="#00ced1" points="1403.4005,-768.361 1412.006,-762.1806 1401.4246,-761.6457 1403.4005,-768.361"/>
</g>
<!-- 7&#45;&gt;9 -->
<g id="edge33" class="edge">
<title>7&#45;&gt;9</title>
<path fill="none" stroke="#00ced1" stroke-dasharray="5,2" d="M1119.604,-802.838C1071.6972,-770.3886 1002.0979,-723.8746 988.1082,-717.9209 942.1454,-698.3603 889.1548,-684.4064 842.0323,-674.6967"/>
<polygon fill="#00ced1" stroke="#00ced1" points="1117.7409,-805.8034 1127.9818,-808.519 1121.6696,-800.0098 1117.7409,-805.8034"/>
<polygon fill="#00ced1" stroke="#00ced1" points="842.565,-671.2338 832.0705,-672.6887 841.1818,-678.0958 842.565,-671.2338"/>
</g>
<!-- 7&#45;&gt;12 -->
<g id="edge34" class="edge">
<title>7&#45;&gt;12</title>
<path fill="none" stroke="#00ced1" stroke-dasharray="5,2" d="M1165.8329,-797.4745C1165.4512,-746.0863 1164.765,-653.7253 1164.3834,-602.3477"/>
<polygon fill="#00ced1" stroke="#00ced1" points="1162.333,-797.5109 1165.9073,-807.4846 1169.3328,-797.4588 1162.333,-797.5109"/>
<polygon fill="#00ced1" stroke="#00ced1" points="1167.8833,-602.313 1164.309,-592.3393 1160.8835,-602.365 1167.8833,-602.313"/>
</g>
<!-- 7&#45;&gt;13 -->
<g id="edge35" class="edge">
<title>7&#45;&gt;13</title>
<path fill="none" stroke="#00ced1" stroke-dasharray="5,2" d="M1037.9371,-820.3576C875.8482,-799.6138 610.2116,-755.271 547.1082,-681.9209 506.839,-635.1128 512.0253,-558.3177 519.8176,-512.7834"/>
<polygon fill="#00ced1" stroke="#00ced1" points="1037.6186,-823.8452 1047.9792,-821.6296 1038.4983,-816.9006 1037.6186,-823.8452"/>
<polygon fill="#00ced1" stroke="#00ced1" points="523.2979,-513.2091 521.6657,-502.7408 516.4135,-511.9422 523.2979,-513.2091"/>
</g>
<!-- 7&#45;&gt;14 -->
<g id="edge36" class="edge">
<title>7&#45;&gt;14</title>
<path fill="none" stroke="#00ced1" stroke-dasharray="5,2" d="M1132.3201,-800.646C1091.3198,-756.8874 1024.4143,-676.3033 998.1082,-592.1808 980.2379,-535.0344 991.588,-464.7839 1001.6739,-422.7468"/>
<polygon fill="#00ced1" stroke="#00ced1" points="1129.9898,-803.2751 1139.4107,-808.1225 1135.0689,-798.4582 1129.9898,-803.2751"/>
<polygon fill="#00ced1" stroke="#00ced1" points="1005.0938,-423.4977 1004.1259,-412.9472 998.3032,-421.7986 1005.0938,-423.4977"/>
</g>
<!-- 7&#45;&gt;15 -->
<g id="edge37" class="edge">
<title>7&#45;&gt;15</title>
<path fill="none" stroke="#00ced1" stroke-dasharray="5,2" d="M1022.7939,-830.0949C878.6282,-823.6322 667.5963,-808.1213 595.1082,-771.661 449.2344,-698.289 404.794,-654.4283 345.1082,-502.4407 336.4452,-480.3807 348.7888,-365.5701 352.1082,-358.9605 357.8674,-347.493 366.7167,-337.2169 376.2638,-328.4588"/>
<polygon fill="#00ced1" stroke="#00ced1" points="1022.9118,-833.6033 1033.0555,-830.5447 1023.2184,-826.61 1022.9118,-833.6033"/>
<polygon fill="#00ced1" stroke="#00ced1" points="378.7369,-330.9478 384.0244,-321.7666 374.1655,-325.6466 378.7369,-330.9478"/>
</g>
<!-- 7&#45;&gt;19 -->
<g id="edge38" class="edge">
<title>7&#45;&gt;19</title>
<path fill="none" stroke="#000000" stroke-dasharray="1,5" d="M1295.1708,-826.8595C1426.1747,-817.6755 1619.2199,-799.8964 1688.1082,-771.661 1887.1927,-690.062 2071.1082,-690.7288 2071.1082,-475.5706 2071.1082,-475.5706 2071.1082,-475.5706 2071.1082,-206.3503 2071.1082,-139.2153 2123.8584,-160.3499 1867.1082,-89.7401 1711.6061,-46.9749 1202.5984,-31.3456 1059.7113,-27.7406"/>
<polygon fill="#000000" stroke="#000000" points="1059.7667,-24.2409 1049.6831,-27.4923 1059.5934,-31.2388 1059.7667,-24.2409"/>
</g>
<!-- 7&#45;&gt;20 -->
<g id="edge39" class="edge">
<title>7&#45;&gt;20</title>
<path fill="none" stroke="#00ced1" stroke-dasharray="5,2" d="M1308.3292,-828.7106C1405.3492,-821.6603 1522.3285,-806.0798 1557.1082,-771.661 1594.4838,-734.6733 1577.1082,-707.6344 1577.1082,-655.0509 1577.1082,-655.0509 1577.1082,-655.0509 1577.1082,-565.3107 1577.1082,-473.1796 1514.3104,-379.5688 1475.6731,-330.6924"/>
<polygon fill="#00ced1" stroke="#00ced1" points="1307.8389,-825.2363 1298.1083,-829.4275 1308.3288,-832.2192 1307.8389,-825.2363"/>
<polygon fill="#00ced1" stroke="#00ced1" points="1478.2182,-328.272 1469.2268,-322.6678 1472.7609,-332.6559 1478.2182,-328.272"/>
</g>
<!-- 7&#45;&gt;21 -->
<g id="edge40" class="edge">
<title>7&#45;&gt;21</title>
<path fill="none" stroke="#00ced1" stroke-dasharray="5,2" d="M1205.9021,-801.3597C1263.9017,-748.7242 1361.5176,-641.4546 1330.1082,-538.4407 1309.0831,-469.4841 1203.3404,-316.717 1149.1082,-269.2203 1133.7503,-255.7699 1115.0051,-244.4335 1096.682,-235.2539"/>
<polygon fill="#00ced1" stroke="#00ced1" points="1203.4688,-798.8402 1198.3447,-808.1136 1208.1333,-804.0597 1203.4688,-798.8402"/>
<polygon fill="#00ced1" stroke="#00ced1" points="1097.9756,-231.9916 1087.4495,-230.7861 1094.9263,-238.2926 1097.9756,-231.9916"/>
</g>
<!-- 7&#45;&gt;22 -->
<g id="edge41" class="edge">
<title>7&#45;&gt;22</title>
<path fill="none" stroke="#000000" stroke-dasharray="1,5" d="M1296.662,-828.1679C1401.6937,-820.6629 1538.8157,-804.7318 1583.1082,-771.661 1724.3822,-666.1795 1730.5381,-425.502 1727.3173,-333.1317"/>
<polygon fill="#000000" stroke="#000000" points="1730.814,-332.9784 1726.9103,-323.129 1723.8198,-333.263 1730.814,-332.9784"/>
</g>
<!-- 7&#45;&gt;24 -->
<g id="edge42" class="edge">
<title>7&#45;&gt;24</title>
<path fill="none" stroke="#00ced1" stroke-dasharray="5,2" d="M1022.5141,-830.6305C886.2448,-824.6749 676.3599,-809.6341 498.1082,-771.661 339.8052,-737.9377 153.1082,-816.9061 153.1082,-655.0509 153.1082,-655.0509 153.1082,-655.0509 153.1082,-565.3107 153.1082,-473.5984 121.5138,-444.6853 154.1082,-358.9605 191.878,-259.6242 220.9163,-234.054 312.1082,-179.4802 335.0629,-165.743 389.0932,-152.0396 442.7566,-140.9492"/>
<polygon fill="#00ced1" stroke="#00ced1" points="1022.4645,-834.1315 1032.6046,-831.0608 1022.7628,-827.1378 1022.4645,-834.1315"/>
<polygon fill="#00ced1" stroke="#00ced1" points="443.6654,-144.336 452.7649,-138.9094 442.2674,-137.4771 443.6654,-144.336"/>
</g>
<!-- 7&#45;&gt;25 -->
<g id="edge43" class="edge">
<title>7&#45;&gt;25</title>
<path fill="none" stroke="#000000" stroke-dasharray="1,5" d="M1290.1077,-824.0364C1404.1585,-813.199 1564.2191,-794.6552 1623.1082,-771.661 1775.4933,-712.1599 1801.879,-649.2213 1874.1082,-502.4407 1921.3157,-406.5079 1972.9711,-368.4303 1933.1082,-269.2203 1912.5121,-217.9611 1895.099,-206.8408 1847.1082,-179.4802 1786.0453,-144.667 1759.8452,-165.5442 1693.1082,-143.4802 1683.9469,-140.4514 1674.2724,-136.5951 1665.3602,-132.7558"/>
<polygon fill="#000000" stroke="#000000" points="1666.6101,-129.4815 1656.049,-128.6362 1663.7778,-135.883 1666.6101,-129.4815"/>
</g>
<!-- 8&#45;&gt;9 -->
<g id="edge44" class="edge">
<title>8&#45;&gt;9</title>
<path fill="none" stroke="#00ced1" d="M1388.0469,-734.9573C1259.1165,-719.6931 1009.3678,-690.1252 852.4865,-671.552"/>
<polygon fill="#00ced1" stroke="#00ced1" points="1387.7418,-738.4455 1398.084,-736.1456 1388.5648,-731.4941 1387.7418,-738.4455"/>
<polygon fill="#00ced1" stroke="#00ced1" points="852.6318,-668.0448 842.2896,-670.3447 851.8087,-674.9962 852.6318,-668.0448"/>
</g>
<!-- 8&#45;&gt;13 -->
<g id="edge45" class="edge">
<title>8&#45;&gt;13</title>
<path fill="none" stroke="#00ced1" d="M1401.7707,-724.9956C1234.0675,-677.1174 806.541,-555.0614 618.8209,-501.4685"/>
<polygon fill="#00ced1" stroke="#00ced1" points="1400.8273,-728.366 1411.404,-727.7458 1402.749,-721.6349 1400.8273,-728.366"/>
<polygon fill="#00ced1" stroke="#00ced1" points="619.5544,-498.0381 608.9777,-498.6583 617.6326,-504.7692 619.5544,-498.0381"/>
</g>
<!-- 8&#45;&gt;14 -->
<g id="edge46" class="edge">
<title>8&#45;&gt;14</title>
<path fill="none" stroke="#00ced1" d="M1454.1023,-708.9804C1431.2853,-664.1283 1386.9689,-587.2552 1330.1082,-538.4407 1261.3252,-479.391 1165.7545,-437.6023 1097.3779,-412.8577"/>
<polygon fill="#00ced1" stroke="#00ced1" points="1451.0339,-710.6698 1458.6416,-718.0437 1457.2928,-707.535 1451.0339,-710.6698"/>
<polygon fill="#00ced1" stroke="#00ced1" points="1098.5104,-409.5457 1087.9158,-409.4792 1096.1566,-416.1381 1098.5104,-409.5457"/>
</g>
<!-- 8&#45;&gt;19 -->
<g id="edge47" class="edge">
<title>8&#45;&gt;19</title>
<path fill="none" stroke="#000000" stroke-dasharray="1,5" d="M1538.2593,-731.5325C1581.8333,-721.4085 1639.0495,-705.1978 1686.1082,-681.9209 1892.8313,-579.6686 2033.1082,-526.7199 2033.1082,-296.0904 2033.1082,-296.0904 2033.1082,-296.0904 2033.1082,-206.3503 2033.1082,-91.8198 2420.2055,-226.1614 1697.1082,-89.7401 1457.2295,-44.484 1162.9671,-31.2915 1059.904,-27.9139"/>
<polygon fill="#000000" stroke="#000000" points="1059.7969,-24.4089 1049.6913,-27.5912 1059.5757,-31.4054 1059.7969,-24.4089"/>
</g>
<!-- 8&#45;&gt;20 -->
<g id="edge48" class="edge">
<title>8&#45;&gt;20</title>
<path fill="none" stroke="#00ced1" d="M1500.4577,-710.7732C1506.4652,-701.9307 1511.9217,-692.0314 1515.1082,-681.9209 1534.2768,-621.1011 1523.9238,-601.5974 1515.1082,-538.4407 1504.663,-463.609 1476.9048,-379.4382 1459.9489,-332.5916"/>
<polygon fill="#00ced1" stroke="#00ced1" points="1497.6055,-708.7445 1494.5853,-718.8997 1503.2792,-712.8445 1497.6055,-708.7445"/>
<polygon fill="#00ced1" stroke="#00ced1" points="1463.2278,-331.3668 1456.5048,-323.1783 1456.654,-333.7721 1463.2278,-331.3668"/>
</g>
<!-- 8&#45;&gt;21 -->
<g id="edge49" class="edge">
<title>8&#45;&gt;21</title>
<path fill="none" stroke="#00ced1" d="M1463.3173,-707.6651C1457.6691,-684.2284 1448.9417,-653.6735 1437.1082,-628.1808 1356.5131,-454.5555 1349.9388,-387.0823 1199.1082,-269.2203 1178.0325,-252.7513 1152.2922,-240.3817 1127.0398,-231.1752"/>
<polygon fill="#00ced1" stroke="#00ced1" points="1459.9453,-708.6173 1465.6226,-717.5626 1466.7628,-707.0293 1459.9453,-708.6173"/>
<polygon fill="#00ced1" stroke="#00ced1" points="1127.9911,-227.8 1117.3963,-227.7996 1125.6784,-234.4069 1127.9911,-227.8"/>
</g>
<!-- 8&#45;&gt;25 -->
<g id="edge50" class="edge">
<title>8&#45;&gt;25</title>
<path fill="none" stroke="#000000" stroke-dasharray="1,5" d="M1526.8293,-725.919C1638.9309,-684.0217 1881.1082,-571.9689 1881.1082,-385.8305 1881.1082,-385.8305 1881.1082,-385.8305 1881.1082,-296.0904 1881.1082,-192.67 1738.1836,-143.0349 1668.4671,-124.9755"/>
<polygon fill="#000000" stroke="#000000" points="1668.8891,-121.4732 1658.3385,-122.4409 1667.1897,-128.2638 1668.8891,-121.4732"/>
</g>
<!-- 9&#45;&gt;12 -->
<g id="edge51" class="edge">
<title>9&#45;&gt;12</title>
<path fill="none" stroke="#00ced1" stroke-dasharray="5,2" d="M825.7902,-632.6294C894.7155,-618.9146 982.5829,-601.4307 1051.4955,-587.7185"/>
<polygon fill="#00ced1" stroke="#00ced1" points="824.8538,-629.247 815.7291,-634.6313 826.2199,-636.1124 824.8538,-629.247"/>
<polygon fill="#00ced1" stroke="#00ced1" points="1052.3963,-591.1079 1061.5209,-585.7236 1051.0301,-584.2425 1052.3963,-591.1079"/>
</g>
<!-- 9&#45;&gt;13 -->
<g id="edge52" class="edge">
<title>9&#45;&gt;13</title>
<path fill="none" stroke="#00ced1" stroke-dasharray="5,2" d="M678.5227,-621.4973C645.4404,-589.402 595.8224,-541.2644 562.7285,-509.1579"/>
<polygon fill="#00ced1" stroke="#00ced1" points="676.1964,-624.1168 685.8108,-628.5679 681.0706,-619.0927 676.1964,-624.1168"/>
<polygon fill="#00ced1" stroke="#00ced1" points="565.1321,-506.6134 555.5176,-502.1622 560.2578,-511.6375 565.1321,-506.6134"/>
</g>
<!-- 9&#45;&gt;14 -->
<g id="edge53" class="edge">
<title>9&#45;&gt;14</title>
<path fill="none" stroke="#00ced1" stroke-dasharray="5,2" d="M733.5725,-619.1021C763.9349,-566.7813 820.602,-473.2095 851.1082,-448.7006 870.3317,-433.2563 893.8037,-421.249 916.8158,-412.0635"/>
<polygon fill="#00ced1" stroke="#00ced1" points="730.3713,-617.6466 728.3993,-628.0564 736.4324,-621.1484 730.3713,-617.6466"/>
<polygon fill="#00ced1" stroke="#00ced1" points="918.2082,-415.2781 926.289,-408.426 915.6989,-408.7433 918.2082,-415.2781"/>
</g>
<!-- 9&#45;&gt;15 -->
<g id="edge54" class="edge">
<title>9&#45;&gt;15</title>
<path fill="none" stroke="#00ced1" stroke-dasharray="5,2" d="M641.9582,-626.4463C541.7774,-585.8387 370.3364,-514.9904 362.1082,-502.4407 326.9203,-448.7715 366.7415,-374.3603 396.8383,-331.1123"/>
<polygon fill="#00ced1" stroke="#00ced1" points="640.8402,-629.7696 651.4228,-630.2787 643.4675,-623.2813 640.8402,-629.7696"/>
<polygon fill="#00ced1" stroke="#00ced1" points="399.7434,-333.0667 402.7029,-322.8936 394.0454,-329.0007 399.7434,-333.0667"/>
</g>
<!-- 9&#45;&gt;19 -->
<g id="edge55" class="edge">
<title>9&#45;&gt;19</title>
<path fill="none" stroke="#000000" stroke-dasharray="1,5" d="M575.9695,-641.9426C491.3205,-631.7635 392.2215,-615.4333 356.1082,-592.1808 221.9571,-505.8039 153.1082,-455.6444 153.1082,-296.0904 153.1082,-296.0904 153.1082,-296.0904 153.1082,-206.3503 153.1082,-122.9569 222.6248,-120.5748 300.1082,-89.7401 426.3242,-39.5121 853.2874,-29.2873 983.8557,-27.3171"/>
<polygon fill="#000000" stroke="#000000" points="984.2026,-30.8125 994.1515,-27.1698 984.1024,-23.8133 984.2026,-30.8125"/>
</g>
<!-- 9&#45;&gt;20 -->
<g id="edge56" class="edge">
<title>9&#45;&gt;20</title>
<path fill="none" stroke="#00ced1" stroke-dasharray="5,2" d="M771.3656,-624.5805C906.8366,-553.7856 1235.4631,-382.4207 1287.1082,-358.9605 1313.9463,-346.769 1343.8882,-334.5757 1370.4875,-324.2163"/>
<polygon fill="#00ced1" stroke="#00ced1" points="769.5804,-621.5643 762.3391,-629.2982 772.8228,-627.7681 769.5804,-621.5643"/>
<polygon fill="#00ced1" stroke="#00ced1" points="1372.0618,-327.3601 1380.1241,-320.4861 1369.5349,-320.8321 1372.0618,-327.3601"/>
</g>
<!-- 9&#45;&gt;21 -->
<g id="edge57" class="edge">
<title>9&#45;&gt;21</title>
<path fill="none" stroke="#00ced1" stroke-dasharray="5,2" d="M722.0406,-618.2708C728.2113,-594.9691 737.25,-564.4349 748.1082,-538.4407 783.1393,-454.5777 789.093,-429.7379 846.1082,-358.9605 884.2013,-311.6725 938.1524,-267.358 976.2565,-238.7953"/>
<polygon fill="#00ced1" stroke="#00ced1" points="718.6134,-617.5438 719.4929,-628.1021 725.3896,-619.2998 718.6134,-617.5438"/>
<polygon fill="#00ced1" stroke="#00ced1" points="978.6723,-241.361 984.6163,-232.5906 974.5004,-235.74 978.6723,-241.361"/>
</g>
<!-- 9&#45;&gt;22 -->
<g id="edge58" class="edge">
<title>9&#45;&gt;22</title>
<path fill="none" stroke="#000000" stroke-dasharray="1,5" d="M864.8068,-647.9342C1019.2413,-639.2049 1247.3594,-621.7935 1330.1082,-592.1808 1370.7847,-577.6242 1374.11,-560.7476 1411.1082,-538.4407 1439.7229,-521.1884 1449.4683,-521.2152 1477.1082,-502.4407 1562.5582,-444.3985 1653.6011,-362.8895 1697.8299,-321.8495"/>
<polygon fill="#000000" stroke="#000000" points="1700.3486,-324.2865 1705.2789,-314.9087 1695.5766,-319.1651 1700.3486,-324.2865"/>
</g>
<!-- 9&#45;&gt;24 -->
<g id="edge59" class="edge">
<title>9&#45;&gt;24</title>
<path fill="none" stroke="#00ced1" stroke-dasharray="5,2" d="M588.5789,-634.7769C525.9132,-623.1152 457.5405,-607.7262 430.1082,-592.1808 312.052,-525.2803 303.0861,-457.5885 286.1082,-322.9605 283.1198,-299.2637 273.6915,-289.6236 286.1082,-269.2203 325.5371,-204.4304 402.3247,-165.9312 467.673,-143.8101"/>
<polygon fill="#00ced1" stroke="#00ced1" points="588.1121,-638.2497 598.5803,-636.616 589.3782,-631.3651 588.1121,-638.2497"/>
<polygon fill="#00ced1" stroke="#00ced1" points="468.8225,-147.1166 477.2258,-140.664 466.6327,-140.4678 468.8225,-147.1166"/>
</g>
<!-- 9&#45;&gt;25 -->
<g id="edge60" class="edge">
<title>9&#45;&gt;25</title>
<path fill="none" stroke="#000000" stroke-dasharray="1,5" d="M866.1122,-648.9854C1033.8794,-640.8776 1291.5658,-623.725 1384.1082,-592.1808 1579.3331,-525.6362 1670.4862,-507.7478 1762.1082,-322.9605 1797.3902,-251.8023 1711.0519,-174.3895 1662.0757,-137.9068"/>
<polygon fill="#000000" stroke="#000000" points="1664.1214,-135.0668 1653.9816,-131.9952 1659.9928,-140.7197 1664.1214,-135.0668"/>
</g>
<!-- 12&#45;&gt;13 -->
<g id="edge61" class="edge">
<title>12&#45;&gt;13</title>
<path fill="none" stroke="#00ced1" stroke-dasharray="5,2" d="M1032.5453,-546.7471C923.3189,-531.3352 768.726,-509.522 659.5368,-494.1153"/>
<polygon fill="#00ced1" stroke="#00ced1" points="1032.2183,-550.2356 1042.6092,-548.1671 1033.1963,-543.3042 1032.2183,-550.2356"/>
<polygon fill="#00ced1" stroke="#00ced1" points="659.8371,-490.6231 649.4461,-492.6915 658.859,-497.5544 659.8371,-490.6231"/>
</g>
<!-- 12&#45;&gt;14 -->
<g id="edge62" class="edge">
<title>12&#45;&gt;14</title>
<path fill="none" stroke="#00ced1" stroke-dasharray="5,2" d="M1134.633,-530.5067C1107.7128,-498.7196 1068.1344,-451.9857 1041.3027,-420.3031"/>
<polygon fill="#00ced1" stroke="#00ced1" points="1132.2187,-533.0716 1141.3523,-538.4407 1137.5604,-528.5477 1132.2187,-533.0716"/>
<polygon fill="#00ced1" stroke="#00ced1" points="1043.9048,-417.9598 1034.7711,-412.5907 1038.563,-422.4838 1043.9048,-417.9598"/>
</g>
<!-- 12&#45;&gt;15 -->
<g id="edge63" class="edge">
<title>12&#45;&gt;15</title>
<path fill="none" stroke="#00ced1" stroke-dasharray="5,2" d="M1061.0429,-541.0759C1019.1235,-530.4167 970.4403,-517.0077 927.1082,-502.4407 765.3564,-448.0645 581.2017,-367.5758 486.9587,-324.9763"/>
<polygon fill="#00ced1" stroke="#00ced1" points="1060.4356,-544.5323 1070.9881,-543.5856 1062.1485,-537.7451 1060.4356,-544.5323"/>
<polygon fill="#00ced1" stroke="#00ced1" points="488.1247,-321.6621 477.5715,-320.7239 485.2362,-328.0384 488.1247,-321.6621"/>
</g>
<!-- 12&#45;&gt;19 -->
<g id="edge64" class="edge">
<title>12&#45;&gt;19</title>
<path fill="none" stroke="#000000" stroke-dasharray="1,5" d="M1232.7573,-541.0235C1261.9194,-530.1039 1296.0558,-516.5167 1326.1082,-502.4407 1362.2386,-485.518 1614.1438,-355.5858 1637.1082,-322.9605 1697.2949,-237.4536 1738.3747,-167.1771 1668.1082,-89.7401 1627.0527,-44.495 1191.9222,-30.7888 1059.8832,-27.6562"/>
<polygon fill="#000000" stroke="#000000" points="1059.9146,-24.1561 1049.8365,-27.4245 1059.7531,-31.1542 1059.9146,-24.1561"/>
</g>
<!-- 12&#45;&gt;20 -->
<g id="edge65" class="edge">
<title>12&#45;&gt;20</title>
<path fill="none" stroke="#00ced1" stroke-dasharray="5,2" d="M1191.7841,-530.5375C1235.8077,-475.4364 1318.5242,-372.8462 1335.1082,-358.9605 1349.6507,-346.784 1366.8856,-335.7185 1383.384,-326.3833"/>
<polygon fill="#00ced1" stroke="#00ced1" points="1188.8279,-528.6307 1185.3243,-538.6295 1194.2985,-532.9979 1188.8279,-528.6307"/>
<polygon fill="#00ced1" stroke="#00ced1" points="1385.388,-329.275 1392.4523,-321.379 1382.0058,-323.1463 1385.388,-329.275"/>
</g>
<!-- 12&#45;&gt;21 -->
<g id="edge66" class="edge">
<title>12&#45;&gt;21</title>
<path fill="none" stroke="#00ced1" stroke-dasharray="5,2" d="M1176.2193,-528.6582C1188.1554,-486.081 1201.503,-414.5745 1178.1082,-358.9605 1156.5968,-307.8233 1108.657,-265.2572 1071.5592,-238.1872"/>
<polygon fill="#00ced1" stroke="#00ced1" points="1172.8422,-527.737 1173.3955,-538.3174 1179.561,-529.7013 1172.8422,-527.737"/>
<polygon fill="#00ced1" stroke="#00ced1" points="1073.5147,-235.2827 1063.3443,-232.3141 1069.4436,-240.9772 1073.5147,-235.2827"/>
</g>
<!-- 12&#45;&gt;22 -->
<g id="edge67" class="edge">
<title>12&#45;&gt;22</title>
<path fill="none" stroke="#000000" stroke-dasharray="1,5" d="M1216.8857,-539.9832C1330.6739,-485.3769 1596.4357,-357.8395 1690.9756,-312.4704"/>
<polygon fill="#000000" stroke="#000000" points="1692.5958,-315.5751 1700.0971,-308.0931 1689.5672,-309.2642 1692.5958,-315.5751"/>
</g>
<!-- 12&#45;&gt;24 -->
<g id="edge68" class="edge">
<title>12&#45;&gt;24</title>
<path fill="none" stroke="#00ced1" stroke-dasharray="5,2" d="M1090.9881,-536.7537C1024.5802,-509.3264 925.2148,-464.4932 846.1082,-412.7006 795.0305,-379.259 788.0399,-363.1792 742.1082,-322.9605 696.9312,-283.4026 677.9146,-280.6659 641.1082,-233.2203 622.0969,-208.7136 606.3283,-177.2673 595.7349,-153.2071"/>
<polygon fill="#00ced1" stroke="#00ced1" points="1089.9603,-540.1151 1100.5405,-540.6728 1092.6174,-533.639 1089.9603,-540.1151"/>
<polygon fill="#00ced1" stroke="#00ced1" points="598.8214,-151.5247 591.6561,-143.7203 592.3906,-154.2897 598.8214,-151.5247"/>
</g>
<!-- 12&#45;&gt;25 -->
<g id="edge69" class="edge">
<title>12&#45;&gt;25</title>
<path fill="none" stroke="#000000" stroke-dasharray="1,5" d="M1205.6796,-539.2325C1271.8916,-498.2307 1406.002,-417.3513 1525.1082,-358.9605 1562.6822,-340.5401 1587.2813,-356.6463 1612.1082,-322.9605 1648.6644,-273.3599 1644.8111,-197.7667 1638.2557,-153.1609"/>
<polygon fill="#000000" stroke="#000000" points="1641.6762,-152.3845 1636.6464,-143.0597 1634.7634,-153.4859 1641.6762,-152.3845"/>
</g>
<!-- 13&#45;&gt;14 -->
<g id="edge70" class="edge">
<title>13&#45;&gt;14</title>
<path fill="none" stroke="#00ced1" stroke-dasharray="5,2" d="M644.6656,-453.9593C720.6158,-439.8771 819.3495,-421.5706 895.3415,-407.4806"/>
<polygon fill="#00ced1" stroke="#00ced1" points="643.8178,-450.5568 634.6235,-455.8213 645.094,-457.4395 643.8178,-450.5568"/>
<polygon fill="#00ced1" stroke="#00ced1" points="896.2412,-410.8736 905.4355,-405.6091 894.965,-403.9909 896.2412,-410.8736"/>
</g>
<!-- 13&#45;&gt;15 -->
<g id="edge71" class="edge">
<title>13&#45;&gt;15</title>
<path fill="none" stroke="#00ced1" stroke-dasharray="5,2" d="M507.433,-439.8899C489.2477,-408.5063 462.9147,-363.0615 444.7419,-331.6993"/>
<polygon fill="#00ced1" stroke="#00ced1" points="504.4964,-441.803 512.5384,-448.7006 510.553,-438.2935 504.4964,-441.803"/>
<polygon fill="#00ced1" stroke="#00ced1" points="447.6564,-329.7482 439.6144,-322.8506 441.5998,-333.2577 447.6564,-329.7482"/>
</g>
<!-- 13&#45;&gt;19 -->
<g id="edge72" class="edge">
<title>13&#45;&gt;19</title>
<path fill="none" stroke="#000000" stroke-dasharray="1,5" d="M455.064,-451.7224C397.7148,-428.6925 321.7948,-387.6552 286.1082,-322.9605 247.7925,-253.4995 294.3039,-129.6333 344.1082,-89.7401 394.2454,-49.5804 848.0329,-32.2931 983.8655,-27.9897"/>
<polygon fill="#000000" stroke="#000000" points="984.3009,-31.4779 994.1871,-27.6684 984.083,-24.4813 984.3009,-31.4779"/>
</g>
<!-- 13&#45;&gt;20 -->
<g id="edge73" class="edge">
<title>13&#45;&gt;20</title>
<path fill="none" stroke="#00ced1" stroke-dasharray="5,2" d="M602.0921,-447.3341C629.5132,-436.6969 660.8132,-424.3519 689.1082,-412.7006 744.6479,-389.8304 754.9708,-374.0518 813.1082,-358.9605 899.7933,-336.4587 1130.7172,-317.2338 1288.3205,-306.1655"/>
<polygon fill="#00ced1" stroke="#00ced1" points="600.6283,-444.1476 592.566,-451.0215 603.1552,-450.6756 600.6283,-444.1476"/>
<polygon fill="#00ced1" stroke="#00ced1" points="1288.8613,-309.6363 1298.5932,-305.4483 1288.3737,-302.6533 1288.8613,-309.6363"/>
</g>
<!-- 13&#45;&gt;21 -->
<g id="edge74" class="edge">
<title>13&#45;&gt;21</title>
<path fill="none" stroke="#00ced1" stroke-dasharray="5,2" d="M555.8841,-440.7458C598.7322,-387.9049 680.0768,-291.2738 719.1082,-269.2203 748.8668,-252.4062 823.8987,-236.7747 891.8468,-225.3041"/>
<polygon fill="#00ced1" stroke="#00ced1" points="552.9126,-438.8544 549.3501,-448.8323 558.3574,-443.2538 552.9126,-438.8544"/>
<polygon fill="#00ced1" stroke="#00ced1" points="892.5261,-228.7393 901.8143,-223.6423 891.3748,-221.8346 892.5261,-228.7393"/>
</g>
<!-- 13&#45;&gt;22 -->
<g id="edge75" class="edge">
<title>13&#45;&gt;22</title>
<path fill="none" stroke="#000000" stroke-dasharray="1,5" d="M632.9949,-455.5219C675.1211,-445.4925 723.4684,-431.4228 765.1082,-412.7006 804.5112,-394.9841 805.0497,-372.4016 846.1082,-358.9605 1008.061,-305.9426 1443.3703,-346.7751 1612.1082,-322.9605 1637.9642,-319.3113 1666.5752,-312.4788 1688.5386,-306.6171"/>
<polygon fill="#000000" stroke="#000000" points="1689.7073,-309.9264 1698.4362,-303.9217 1687.8679,-303.1724 1689.7073,-309.9264"/>
</g>
<!-- 13&#45;&gt;24 -->
<g id="edge76" class="edge">
<title>13&#45;&gt;24</title>
<path fill="none" stroke="#00ced1" stroke-dasharray="5,2" d="M537.7267,-438.6252C545.3971,-407.8734 555.8567,-362.8348 562.1082,-322.9605 571.3095,-264.2712 576.5457,-195.4408 579.1038,-153.9697"/>
<polygon fill="#00ced1" stroke="#00ced1" points="534.2935,-437.9261 535.2425,-448.4783 541.0811,-439.6375 534.2935,-437.9261"/>
<polygon fill="#00ced1" stroke="#00ced1" points="582.6095,-153.9772 579.7118,-143.7863 575.6219,-153.5599 582.6095,-153.9772"/>
</g>
<!-- 13&#45;&gt;25 -->
<g id="edge77" class="edge">
<title>13&#45;&gt;25</title>
<path fill="none" stroke="#000000" stroke-dasharray="1,5" d="M545.8434,-448.7847C589.4591,-385.812 709.1652,-229.882 856.1082,-179.4802 994.882,-131.8806 1456.7179,-119.7875 1592.9609,-117.2214"/>
<polygon fill="#000000" stroke="#000000" points="1593.3658,-120.7147 1603.3005,-117.0334 1593.2385,-113.7159 1593.3658,-120.7147"/>
</g>
<!-- 14&#45;&gt;15 -->
<g id="edge78" class="edge">
<title>14&#45;&gt;15</title>
<path fill="none" stroke="#00ced1" stroke-dasharray="5,2" d="M884.7055,-366.3864C781.635,-350.6559 637.7874,-328.702 538.3966,-313.533"/>
<polygon fill="#00ced1" stroke="#00ced1" points="884.4697,-369.8909 894.8833,-367.9397 885.5258,-362.971 884.4697,-369.8909"/>
<polygon fill="#00ced1" stroke="#00ced1" points="538.7307,-310.0436 528.3171,-311.9947 537.6746,-316.9634 538.7307,-310.0436"/>
</g>
<!-- 14&#45;&gt;19 -->
<g id="edge79" class="edge">
<title>14&#45;&gt;19</title>
<path fill="none" stroke="#000000" stroke-dasharray="1,5" d="M967.5801,-359.8004C910.9605,-323.0465 824.1529,-252.2652 856.1082,-179.4802 883.2483,-117.6628 949.1558,-69.876 989.2819,-45.2699"/>
<polygon fill="#000000" stroke="#000000" points="991.1422,-48.2355 997.9159,-40.0888 987.5403,-42.2333 991.1422,-48.2355"/>
</g>
<!-- 14&#45;&gt;20 -->
<g id="edge80" class="edge">
<title>14&#45;&gt;20</title>
<path fill="none" stroke="#00ced1" stroke-dasharray="5,2" d="M1122.2265,-363.0609C1187.651,-349.5328 1270.3517,-332.4324 1335.8081,-318.8976"/>
<polygon fill="#00ced1" stroke="#00ced1" points="1121.3056,-359.6772 1112.2215,-365.1296 1122.7231,-366.5322 1121.3056,-359.6772"/>
<polygon fill="#00ced1" stroke="#00ced1" points="1336.6636,-322.2949 1345.7477,-316.8424 1335.2461,-315.4399 1336.6636,-322.2949"/>
</g>
<!-- 14&#45;&gt;21 -->
<g id="edge81" class="edge">
<title>14&#45;&gt;21</title>
<path fill="none" stroke="#00ced1" stroke-dasharray="5,2" d="M1014.1685,-348.8518C1015.8808,-318.1207 1018.3062,-274.589 1020.0248,-243.7435"/>
<polygon fill="#00ced1" stroke="#00ced1" points="1010.6671,-348.7813 1013.6053,-358.9605 1017.6563,-349.1707 1010.6671,-348.7813"/>
<polygon fill="#00ced1" stroke="#00ced1" points="1023.5391,-243.5832 1020.6009,-233.404 1016.5499,-243.1938 1023.5391,-243.5832"/>
</g>
<!-- 14&#45;&gt;22 -->
<g id="edge82" class="edge">
<title>14&#45;&gt;22</title>
<path fill="none" stroke="#000000" stroke-dasharray="1,5" d="M1151.3381,-373.3398C1300.2547,-359.6054 1526.543,-337.5539 1612.1082,-322.9605 1637.8487,-318.5703 1666.4611,-311.7465 1688.454,-306.0742"/>
<polygon fill="#000000" stroke="#000000" points="1689.5792,-309.3978 1698.3674,-303.4802 1687.8071,-302.6258 1689.5792,-309.3978"/>
</g>
<!-- 14&#45;&gt;24 -->
<g id="edge83" class="edge">
<title>14&#45;&gt;24</title>
<path fill="none" stroke="#00ced1" stroke-dasharray="5,2" d="M912.5063,-360.5983C882.7319,-350.9945 850.6935,-338.5209 823.1082,-322.9605 738.7789,-275.3916 656.4312,-196.1707 612.9177,-150.9793"/>
<polygon fill="#00ced1" stroke="#00ced1" points="911.4957,-363.9494 922.0852,-363.6158 913.5989,-357.2728 911.4957,-363.9494"/>
<polygon fill="#00ced1" stroke="#00ced1" points="615.2016,-148.3031 605.7628,-143.4905 610.1403,-153.1388 615.2016,-148.3031"/>
</g>
<!-- 14&#45;&gt;25 -->
<g id="edge84" class="edge">
<title>14&#45;&gt;25</title>
<path fill="none" stroke="#000000" stroke-dasharray="1,5" d="M1069.6128,-360.8041C1123.8806,-337.1877 1207.5206,-300.7923 1280.1082,-269.2203 1395.7874,-218.9057 1532.9243,-159.2895 1596.0775,-131.8373"/>
<polygon fill="#000000" stroke="#000000" points="1597.7877,-134.9103 1605.5634,-127.7139 1594.9971,-128.4906 1597.7877,-134.9103"/>
</g>
<!-- 15&#45;&gt;21 -->
<g id="edge85" class="edge">
<title>15&#45;&gt;21</title>
<path fill="none" stroke="#00ced1" stroke-dasharray="5,2" d="M538.5998,-278.909C640.1486,-263.6699 788.3144,-241.435 893.8259,-225.6012"/>
<polygon fill="#00ced1" stroke="#00ced1" points="537.9836,-275.4622 528.6138,-280.4076 539.0225,-282.3847 537.9836,-275.4622"/>
<polygon fill="#00ced1" stroke="#00ced1" points="894.5308,-229.0347 903.9006,-224.0894 893.4919,-222.1123 894.5308,-229.0347"/>
</g>
<!-- 15&#45;&gt;24 -->
<g id="edge86" class="edge">
<title>15&#45;&gt;24</title>
<path fill="none" stroke="#00ced1" stroke-dasharray="5,2" d="M454.1998,-261.6901C481.9657,-229.9485 522.9857,-183.055 550.8154,-151.2405"/>
<polygon fill="#00ced1" stroke="#00ced1" points="451.2238,-259.7763 447.2741,-269.6075 456.4925,-264.3851 451.2238,-259.7763"/>
<polygon fill="#00ced1" stroke="#00ced1" points="553.6408,-153.3265 557.5905,-143.4953 548.3721,-148.7177 553.6408,-153.3265"/>
</g>
<!-- 17&#45;&gt;22 -->
<g id="edge87" class="edge">
<title>17&#45;&gt;22</title>
<path fill="none" stroke="#000000" stroke-dasharray="1,5" d="M1906.2613,-807.441C1894.5401,-743.8694 1862.4029,-580.5311 1819.1082,-448.7006 1805.5939,-407.55 1804.2661,-395.5627 1781.1082,-358.9605 1772.9328,-346.0388 1762.088,-333.1795 1752.1205,-322.4893"/>
<polygon fill="#000000" stroke="#000000" points="1754.5106,-319.9245 1745.0685,-315.1186 1749.4528,-324.7638 1754.5106,-319.9245"/>
</g>
<!-- 20&#45;&gt;19 -->
<g id="edge88" class="edge">
<title>20&#45;&gt;19</title>
<path fill="none" stroke="#000000" stroke-dasharray="1,5" d="M1407.8056,-269.9614C1372.5344,-246.0456 1318.6331,-209.8626 1271.1082,-179.4802 1194.2547,-130.3482 1102.4473,-74.903 1054.6591,-46.2824"/>
<polygon fill="#000000" stroke="#000000" points="1056.362,-43.2227 1045.9837,-41.0918 1052.768,-49.2296 1056.362,-43.2227"/>
</g>
<!-- 20&#45;&gt;21 -->
<g id="edge89" class="edge">
<title>20&#45;&gt;21</title>
<path fill="none" stroke="#00ced1" stroke-dasharray="5,2" d="M1337.1171,-273.0223C1273.8535,-259.6325 1194.4222,-242.8208 1131.1501,-229.4291"/>
<polygon fill="#00ced1" stroke="#00ced1" points="1336.7261,-276.517 1347.2342,-275.1636 1338.1756,-269.6687 1336.7261,-276.517"/>
<polygon fill="#00ced1" stroke="#00ced1" points="1131.647,-225.9568 1121.1389,-227.3103 1130.1975,-232.8051 1131.647,-225.9568"/>
</g>
<!-- 20&#45;&gt;24 -->
<g id="edge90" class="edge">
<title>20&#45;&gt;24</title>
<path fill="none" stroke="#00ced1" stroke-dasharray="5,2" d="M1391.8456,-265.3351C1340.9129,-237.9984 1261.7473,-199.3739 1188.1082,-179.4802 1115.0071,-159.7319 934.2889,-142.4357 788.927,-131.0104"/>
<polygon fill="#00ced1" stroke="#00ced1" points="1390.2466,-268.4493 1400.7072,-270.1305 1393.5781,-262.2929 1390.2466,-268.4493"/>
<polygon fill="#00ced1" stroke="#00ced1" points="788.7662,-127.4873 778.524,-130.198 788.2211,-134.466 788.7662,-127.4873"/>
</g>
<!-- 20&#45;&gt;25 -->
<g id="edge91" class="edge">
<title>20&#45;&gt;25</title>
<path fill="none" stroke="#000000" stroke-dasharray="1,5" d="M1473.4056,-269.6075C1508.4465,-235.6121 1568.887,-176.975 1603.8897,-143.0166"/>
<polygon fill="#000000" stroke="#000000" points="1606.6328,-145.2319 1611.373,-135.7566 1601.7585,-140.2077 1606.6328,-145.2319"/>
</g>
<!-- 21&#45;&gt;19 -->
<g id="edge92" class="edge">
<title>21&#45;&gt;19</title>
<path fill="none" stroke="#000000" stroke-dasharray="1,5" d="M1022.1082,-179.0911C1022.1082,-148.3417 1022.1082,-98.1628 1022.1082,-63.8858"/>
<polygon fill="#000000" stroke="#000000" points="1025.6083,-63.7977 1022.1082,-53.7977 1018.6083,-63.7977 1025.6083,-63.7977"/>
</g>
<!-- 21&#45;&gt;24 -->
<g id="edge93" class="edge">
<title>21&#45;&gt;24</title>
<path fill="none" stroke="#00ced1" stroke-dasharray="5,2" d="M910.9535,-183.7312C848.4356,-171.0092 770.2159,-155.0921 705.6398,-141.9514"/>
<polygon fill="#00ced1" stroke="#00ced1" points="910.4368,-187.1977 920.9339,-185.7621 911.8327,-180.3382 910.4368,-187.1977"/>
<polygon fill="#00ced1" stroke="#00ced1" points="706.3037,-138.5148 695.8066,-139.9504 704.9078,-145.3743 706.3037,-138.5148"/>
</g>
<!-- 21&#45;&gt;25 -->
<g id="edge94" class="edge">
<title>21&#45;&gt;25</title>
<path fill="none" stroke="#000000" stroke-dasharray="1,5" d="M1141.3376,-188.7811C1281.2593,-168.1627 1505.3794,-135.1371 1593.6478,-122.1302"/>
<polygon fill="#000000" stroke="#000000" points="1594.3411,-125.5659 1603.724,-120.6454 1593.3206,-118.6407 1594.3411,-125.5659"/>
</g>
<!-- 24&#45;&gt;19 -->
<g id="edge95" class="edge">
<title>24&#45;&gt;19</title>
<path fill="none" stroke="#000000" stroke-dasharray="1,5" d="M695.5373,-93.3247C791.2703,-73.8438 922.0214,-47.237 985.0912,-34.4027"/>
<polygon fill="#000000" stroke="#000000" points="985.8763,-37.8148 994.9776,-32.3909 984.4804,-30.9554 985.8763,-37.8148"/>
</g>
</g>
</svg>
